<?xml version="1.0" encoding="UTF-8"?>
<svg width="101px" height="41px" viewBox="0 0 101 41" version="1.1" xmlns="http://www.w3.org/2000/svg" xmlns:xlink="http://www.w3.org/1999/xlink">
    <!-- Generator: Sketch 52.5 (67469) - http://www.bohemiancoding.com/sketch -->
    <title>logo</title>
    <desc>Created with Sketch.</desc>
    <g id="Page-1" stroke="none" stroke-width="1" fill="none" fill-rule="evenodd">
        <g id="logo" transform="translate(0.000000, -1.000000)">
            <path d="M1.48413676,21.4611119 C0.664657818,21.4611119 2.84217094e-14,20.8029869 2.84217094e-14,19.9912388 L2.84217094e-14,5.3862879 C2.84217094e-14,2.96770887 1.98661562,1 4.42880389,1 L13.4798614,1 C15.9217431,1 17.9086653,2.96770887 17.9086653,5.3862879 L17.9086653,11.6081749 C17.9086653,14.0267539 15.9217431,15.9943113 13.4798614,15.9943113 L2.96827352,15.9943113 L2.96827352,19.9912388 C2.96827352,20.8029869 2.3036157,21.4611119 1.48413676,21.4611119 Z M2.96827352,13.0547166 L13.4798614,13.0547166 C14.2852379,13.0547166 14.9406984,12.4058333 14.9406984,11.6081749 L14.9406984,5.3862879 C14.9406984,4.58847801 14.2852379,3.93959464 13.4798614,3.93959464 L4.42880389,3.93959464 C3.62342747,3.93959464 2.96827352,4.58847801 2.96827352,5.3862879 L2.96827352,13.0547166 Z" id="Fill-1" fill="#00333C" fill-rule="nonzero"></path>
            <path d="M21.7749016,16.5504451 C20.9885473,16.5504451 20.350756,15.8679242 20.350756,15.0260857 L20.350756,5.55548083 C20.350756,3.04740535 22.2573637,1.00659896 24.6005406,1.00659896 L29.5088565,1 C30.2953579,1 30.9331492,1.68252082 30.9331492,2.52435935 C30.9331492,3.36619788 30.3212461,4.04887582 29.5348918,4.04887582 L24.6005406,4.05547478 C23.8277188,4.05547478 23.1990472,4.72809716 23.1990472,5.55548083 L23.1990472,15.0260857 C23.1990472,15.8679242 22.5612559,16.5504451 21.7749016,16.5504451" id="Fill-2" fill="#00333C"></path>
            <path d="M42.939835,41.9222238 C42.1533336,41.9222238 41.5155423,41.2395459 41.5155423,40.3978645 L41.5155423,30.9272596 C41.5155423,28.419027 43.42215,26.3783777 45.765474,26.3783777 L50.6737899,26.3717788 C51.4601442,26.3717788 52.0979355,27.0542996 52.0979355,27.8961381 C52.0979355,28.7379767 51.4861795,29.4204975 50.6998252,29.4204975 L45.765474,29.4270964 C44.9926522,29.4270964 44.3639806,30.0998759 44.3639806,30.9272596 L44.3639806,40.3978645 C44.3639806,41.2395459 43.7260422,41.9222238 42.939835,41.9222238" id="Fill-3" fill="#00333C"></path>
            <path d="M16.426318,41.9179799 L1.48235194,41.9222238 C0.858302377,41.9222238 0.30100591,41.5201452 0.0884983556,40.9165558 C-0.123702992,40.3124948 0.0538969815,39.6370719 0.533416909,39.2257194 L12.2972717,29.4214774 L1.48235194,29.4214774 C0.663861027,29.4214774 4.57587657e-06,28.7386668 4.57587657e-06,27.8967853 C4.57587657e-06,27.0545894 0.663861027,26.3717788 1.48235194,26.3717788 L16.3912573,26.3717788 C17.0151537,26.3717788 17.5726033,26.7738574 17.7848046,27.3774468 C17.9973122,27.9813507 17.8195591,28.6572451 17.3401923,29.0681261 L5.35954308,38.8725252 L16.426318,38.868124 C17.2448089,38.868124 17.9086653,39.5507774 17.9086653,40.3929734 C17.9086653,41.2354836 17.2448089,41.9179799 16.426318,41.9179799" id="Fill-4" fill="#00333C"></path>
            <path d="M87.9442839,41.1037794 L77.8378789,41.1037794 C77.0268,41.1037794 76.3693815,40.4360925 76.3693815,39.6128937 C76.3693815,38.7898486 77.0268,38.1223154 77.8378789,38.1223154 L87.9442839,38.1223154 C93.490626,38.1223154 98.0027552,33.5417835 98.0027552,27.9117002 L98.0027552,3.98146399 L67.5351889,3.98146399 C61.9889985,3.98146399 57.4771726,8.56168848 57.4771726,14.1917719 L57.4771726,20.30637 C57.4771726,21.1297225 56.8197542,21.7972557 56.0085236,21.7972557 C55.1974446,21.7972557 54.5400262,21.1297225 54.5400262,20.30637 L54.5400262,14.1917719 C54.5400262,6.91774962 60.3695709,1 67.5351889,1 L100.93975,1 L100.93975,27.9117002 C100.93975,35.1855687 95.1100535,41.1037794 87.9442839,41.1037794" id="Fill-24" fill="#FBDF4B"></path>
            <path d="M68.0696267,41.9222238 L58.9189394,41.9222238 C56.5043305,41.9222238 54.5400262,39.8798904 54.5400262,37.3699383 L54.5400262,30.9240643 C54.5400262,28.4139549 56.5043305,26.3717788 58.9189394,26.3717788 L68.0696267,26.3717788 C70.4840841,26.3717788 72.4486915,28.4139549 72.4486915,30.9240643 L72.4486915,37.3699383 C72.4486915,39.8798904 70.4840841,41.9222238 68.0696267,41.9222238 M58.9189394,29.4224642 C58.1223049,29.4224642 57.4745089,30.0960616 57.4745089,30.9240643 L57.4745089,37.3699383 C57.4745089,38.1979411 58.1223049,38.8715384 58.9189394,38.8715384 L68.0696267,38.8715384 C68.8659581,38.8715384 69.5142088,38.1979411 69.5142088,37.3699383 L69.5142088,30.9240643 C69.5142088,30.0960616 68.8659581,29.4224642 68.0696267,29.4224642 L58.9189394,29.4224642" id="Fill-25" fill="#00333C" fill-rule="nonzero"></path>
            <path d="M39.0734516,1 L48.0277843,1" id="Fill-26" fill="#00333C"></path>
            <path d="M47.6514244,16.5504451 L38.6123592,16.5504451 C36.1735598,16.5504451 34.1892702,14.5092438 34.1892702,11.9999464 L34.1892702,5.55081305 C34.1892702,3.04167279 36.1735598,1 38.6123592,1 L47.6753057,1 C50.113952,1 52.0979355,3.04167279 52.0979355,5.55081305 C52.0979355,8.07834392 50.113952,10.1198595 47.6753057,10.1198595 L37.1536108,10.1198595 L37.1536108,11.9999464 C37.1536108,12.8273669 37.8080498,13.5007464 38.6123592,13.5007464 L47.6514244,13.5007464 C48.4698176,13.5007464 49.1335948,14.183557 49.1335948,15.0254386 C49.1335948,15.8676345 48.4698176,16.5504451 47.6514244,16.5504451 M37.1536108,7.07016089 L47.6753057,7.07016089 C48.4796151,7.07016089 49.133901,6.3967814 49.133901,5.56920366 C49.133901,4.72307812 48.4796151,4.05017018 47.6753057,4.05017018 L38.6123592,4.05017018 C37.8080498,4.05017018 37.1536108,4.72307812 37.1536108,5.55081305 L37.1536108,7.07016089" id="Fill-27" fill="#00333C" fill-rule="nonzero"></path>
            <path d="M33.8129103,41.9222238 L24.773692,41.9222238 C22.3350457,41.9222238 20.350756,39.8810226 20.350756,37.371568 L20.350756,30.9225918 C20.350756,28.4132944 22.3350457,26.3717788 24.773692,26.3717788 L33.8367916,26.3717788 C36.2754379,26.3717788 38.2594214,28.4132944 38.2594214,30.9225918 C38.2594214,33.4501227 36.2754379,35.4916383 33.8367916,35.4916383 L23.3150967,35.4916383 L23.3150967,37.371568 C23.3150967,38.1991457 23.9693826,38.8725252 24.773692,38.8725252 L33.8129103,38.8725252 C34.6313035,38.8725252 35.2950807,39.5553358 35.2950807,40.3972173 C35.2950807,41.2392561 34.6313035,41.9222238 33.8129103,41.9222238 M23.3150967,32.4419397 L33.8367916,32.4419397 C34.6411009,32.4419397 35.2953868,31.7685602 35.2953868,30.9408253 C35.2953868,30.0948569 34.6411009,29.4217918 33.8367916,29.4217918 L24.773692,29.4217918 C23.9693826,29.4217918 23.3150967,30.0948569 23.3150967,30.9225918 L23.3150967,32.4419397" id="Fill-28" fill="#00333C" fill-rule="nonzero"></path>
        </g>
    </g>
</svg>